<mxfile host="app.diagrams.net" modified="2023-07-14T14:36:18.773Z" agent="Mozilla/5.0 (Macintosh; Intel Mac OS X 10_15_7) AppleWebKit/605.1.15 (KHTML, like Gecko) Version/16.5 Safari/605.1.15" version="21.6.2" etag="Q4urzNuE-URD600zhMao" type="github">
  <diagram name="Page-1" id="e0AwE_0vNjQsBGJZtOTI">
    <mxGraphModel>
      <root>
        <mxCell id="0" />
        <mxCell id="1" parent="0" />
      </root>
    </mxGraphModel>
  </diagram>
</mxfile>
